<mxfile host="app.diagrams.net" modified="2024-02-09T05:29:27.157Z" agent="Mozilla/5.0 (Windows NT 10.0; Win64; x64) AppleWebKit/537.36 (KHTML, like Gecko) Chrome/120.0.0.0 Safari/537.36 OPR/106.0.0.0" etag="OVOBlFfenCHkKL0nwVMp" version="23.1.2" type="github">
  <diagram name="Page-1" id="DmMFF0YoxJnTsvSPMJ7N">
    <mxGraphModel dx="826" dy="1537" grid="1" gridSize="10" guides="1" tooltips="1" connect="1" arrows="1" fold="1" page="1" pageScale="1" pageWidth="850" pageHeight="1100" math="0" shadow="0">
      <root>
        <mxCell id="0" />
        <mxCell id="1" parent="0" />
        <mxCell id="0UWOfdU99n7TTAHSiTq--1" value="" style="image;aspect=fixed;html=1;points=[];align=center;fontSize=12;image=img/lib/azure2/networking/Virtual_Router.svg;" vertex="1" parent="1">
          <mxGeometry x="300" y="-300" width="68" height="68" as="geometry" />
        </mxCell>
        <mxCell id="0UWOfdU99n7TTAHSiTq--3" style="edgeStyle=orthogonalEdgeStyle;rounded=0;orthogonalLoop=1;jettySize=auto;html=1;" edge="1" parent="1" source="0UWOfdU99n7TTAHSiTq--2" target="0UWOfdU99n7TTAHSiTq--1">
          <mxGeometry relative="1" as="geometry" />
        </mxCell>
        <mxCell id="0UWOfdU99n7TTAHSiTq--2" value="" style="image;aspect=fixed;html=1;points=[];align=center;fontSize=12;image=img/lib/azure2/networking/Virtual_Router.svg;" vertex="1" parent="1">
          <mxGeometry x="500" y="-300" width="68" height="68" as="geometry" />
        </mxCell>
      </root>
    </mxGraphModel>
  </diagram>
</mxfile>
